<svg xmlns="http://www.w3.org/2000/svg" viewBox="0 0 32 32">
  <g transform="translate(2, 2) scale(0.875)">
    <!-- ピンクの小鳥 -->
    <path d="M12 20c-4 0-8-3-8-8s4-8 8-8" fill="#FF9999"/>
    <circle cx="8" cy="10" r="1.5" fill="#333"/>
    <path d="M7 14c0-1 2-2 2 0" fill="#FF6B6B"/>
    <path d="M4 12l-2 2" stroke="#FF9999" strokeWidth="1"/>
    
    <!-- 青い小鳥 -->
    <path d="M20 20c4 0 8-3 8-8s-4-8-8-8" fill="#66B3FF"/>
    <circle cx="24" cy="10" r="1.5" fill="#333"/>
    <path d="M25 14c0-1-2-2-2 0" fill="#FF6B6B"/>
    <path d="M28 12l2 2" stroke="#66B3FF" strokeWidth="1"/>
    
    <!-- ハート -->
    <path d="M16 4c1-2 3-2 4-1s1 3-1 5l-3 3-3-3c-2-2-2-4-1-5s3-1 4 1z" fill="#FF6B6B"/>
  </g>
</svg>